<mxfile host="app.diagrams.net" agent="Mozilla/5.0 (Windows NT 10.0; Win64; x64; rv:136.0) Gecko/20100101 Firefox/136.0" version="24.8.6">
  <diagram name="Seite-1" id="aXTx5gB7izYMbGqar2AK">
    <mxGraphModel dx="988" dy="550" grid="1" gridSize="10" guides="1" tooltips="1" connect="1" arrows="1" fold="1" page="1" pageScale="1" pageWidth="827" pageHeight="1169" math="0" shadow="0">
      <root>
        <mxCell id="0" />
        <mxCell id="1" parent="0" />
        <mxCell id="IYsiuEZ821G_rn9LFfDj-1" value="&lt;div&gt;Book&lt;/div&gt;" style="html=1;whiteSpace=wrap;" parent="1" vertex="1">
          <mxGeometry x="50" y="110" width="110" height="50" as="geometry" />
        </mxCell>
        <mxCell id="IYsiuEZ821G_rn9LFfDj-2" value="&lt;u&gt;book_id&lt;/u&gt;" style="rounded=0;whiteSpace=wrap;html=1;" parent="1" vertex="1">
          <mxGeometry x="40" y="30" width="60" height="40" as="geometry" />
        </mxCell>
        <mxCell id="IYsiuEZ821G_rn9LFfDj-3" value="title" style="rounded=0;whiteSpace=wrap;html=1;" parent="1" vertex="1">
          <mxGeometry x="120" y="35" width="40" height="30" as="geometry" />
        </mxCell>
        <mxCell id="IYsiuEZ821G_rn9LFfDj-4" value="User" style="html=1;whiteSpace=wrap;" parent="1" vertex="1">
          <mxGeometry x="540" y="110" width="110" height="50" as="geometry" />
        </mxCell>
        <mxCell id="IYsiuEZ821G_rn9LFfDj-5" value="&lt;u&gt;user_id&lt;/u&gt;" style="rounded=0;whiteSpace=wrap;html=1;" parent="1" vertex="1">
          <mxGeometry x="540" y="20" width="50" height="30" as="geometry" />
        </mxCell>
        <mxCell id="IYsiuEZ821G_rn9LFfDj-6" value="name" style="rounded=0;whiteSpace=wrap;html=1;" parent="1" vertex="1">
          <mxGeometry x="610" y="25" width="50" height="20" as="geometry" />
        </mxCell>
        <mxCell id="IYsiuEZ821G_rn9LFfDj-7" value="borrowed_until" style="rounded=0;whiteSpace=wrap;html=1;" parent="1" vertex="1">
          <mxGeometry x="180" y="30" width="100" height="40" as="geometry" />
        </mxCell>
        <mxCell id="IYsiuEZ821G_rn9LFfDj-8" value="&lt;div&gt;State&lt;/div&gt;" style="html=1;whiteSpace=wrap;" parent="1" vertex="1">
          <mxGeometry x="100" y="350" width="60" height="40" as="geometry" />
        </mxCell>
        <mxCell id="IYsiuEZ821G_rn9LFfDj-9" value="&lt;u&gt;state_id&lt;/u&gt;" style="rounded=0;whiteSpace=wrap;html=1;" parent="1" vertex="1">
          <mxGeometry x="120" y="410" width="60" height="40" as="geometry" />
        </mxCell>
        <mxCell id="IYsiuEZ821G_rn9LFfDj-10" value="name" style="rounded=0;whiteSpace=wrap;html=1;" parent="1" vertex="1">
          <mxGeometry x="120" y="460" width="60" height="30" as="geometry" />
        </mxCell>
        <mxCell id="IYsiuEZ821G_rn9LFfDj-11" value="Genre" style="html=1;whiteSpace=wrap;" parent="1" vertex="1">
          <mxGeometry x="210" y="350" width="60" height="40" as="geometry" />
        </mxCell>
        <mxCell id="IYsiuEZ821G_rn9LFfDj-12" value="&lt;u&gt;genre_id&lt;/u&gt;" style="rounded=0;whiteSpace=wrap;html=1;" parent="1" vertex="1">
          <mxGeometry x="230" y="410" width="60" height="40" as="geometry" />
        </mxCell>
        <mxCell id="IYsiuEZ821G_rn9LFfDj-13" value="name" style="rounded=0;whiteSpace=wrap;html=1;" parent="1" vertex="1">
          <mxGeometry x="230" y="460" width="60" height="30" as="geometry" />
        </mxCell>
        <mxCell id="IYsiuEZ821G_rn9LFfDj-14" value="Author" style="html=1;whiteSpace=wrap;" parent="1" vertex="1">
          <mxGeometry x="320" y="350" width="60" height="40" as="geometry" />
        </mxCell>
        <mxCell id="IYsiuEZ821G_rn9LFfDj-15" value="&lt;u&gt;author_id&lt;/u&gt;" style="rounded=0;whiteSpace=wrap;html=1;" parent="1" vertex="1">
          <mxGeometry x="340" y="410" width="60" height="40" as="geometry" />
        </mxCell>
        <mxCell id="IYsiuEZ821G_rn9LFfDj-16" value="name" style="rounded=0;whiteSpace=wrap;html=1;" parent="1" vertex="1">
          <mxGeometry x="340" y="460" width="60" height="30" as="geometry" />
        </mxCell>
        <mxCell id="IYsiuEZ821G_rn9LFfDj-17" value="Publisher" style="html=1;whiteSpace=wrap;" parent="1" vertex="1">
          <mxGeometry x="430" y="350" width="60" height="40" as="geometry" />
        </mxCell>
        <mxCell id="IYsiuEZ821G_rn9LFfDj-18" value="&lt;u&gt;publisher_id&lt;/u&gt;" style="rounded=0;whiteSpace=wrap;html=1;" parent="1" vertex="1">
          <mxGeometry x="450" y="410" width="80" height="40" as="geometry" />
        </mxCell>
        <mxCell id="IYsiuEZ821G_rn9LFfDj-19" value="name" style="rounded=0;whiteSpace=wrap;html=1;" parent="1" vertex="1">
          <mxGeometry x="450" y="460" width="60" height="30" as="geometry" />
        </mxCell>
        <mxCell id="IYsiuEZ821G_rn9LFfDj-20" value="" style="endArrow=none;html=1;rounded=0;entryX=0.75;entryY=1;entryDx=0;entryDy=0;exitX=0.5;exitY=0;exitDx=0;exitDy=0;" parent="1" source="IYsiuEZ821G_rn9LFfDj-9" target="IYsiuEZ821G_rn9LFfDj-8" edge="1">
          <mxGeometry width="50" height="50" relative="1" as="geometry">
            <mxPoint x="390" y="730" as="sourcePoint" />
            <mxPoint x="440" y="680" as="targetPoint" />
          </mxGeometry>
        </mxCell>
        <mxCell id="IYsiuEZ821G_rn9LFfDj-21" value="" style="endArrow=none;html=1;rounded=0;entryX=0.15;entryY=1.025;entryDx=0;entryDy=0;exitX=0;exitY=0.5;exitDx=0;exitDy=0;entryPerimeter=0;" parent="1" source="IYsiuEZ821G_rn9LFfDj-10" target="IYsiuEZ821G_rn9LFfDj-8" edge="1">
          <mxGeometry width="50" height="50" relative="1" as="geometry">
            <mxPoint x="390" y="730" as="sourcePoint" />
            <mxPoint x="440" y="680" as="targetPoint" />
          </mxGeometry>
        </mxCell>
        <mxCell id="IYsiuEZ821G_rn9LFfDj-22" value="" style="endArrow=none;html=1;rounded=0;entryX=0.133;entryY=1.075;entryDx=0;entryDy=0;entryPerimeter=0;exitX=0;exitY=0.5;exitDx=0;exitDy=0;" parent="1" source="IYsiuEZ821G_rn9LFfDj-13" target="IYsiuEZ821G_rn9LFfDj-11" edge="1">
          <mxGeometry width="50" height="50" relative="1" as="geometry">
            <mxPoint x="390" y="730" as="sourcePoint" />
            <mxPoint x="440" y="680" as="targetPoint" />
          </mxGeometry>
        </mxCell>
        <mxCell id="IYsiuEZ821G_rn9LFfDj-23" value="" style="endArrow=none;html=1;rounded=0;entryX=0.75;entryY=1;entryDx=0;entryDy=0;exitX=0.5;exitY=0;exitDx=0;exitDy=0;" parent="1" source="IYsiuEZ821G_rn9LFfDj-12" target="IYsiuEZ821G_rn9LFfDj-11" edge="1">
          <mxGeometry width="50" height="50" relative="1" as="geometry">
            <mxPoint x="390" y="730" as="sourcePoint" />
            <mxPoint x="440" y="680" as="targetPoint" />
          </mxGeometry>
        </mxCell>
        <mxCell id="IYsiuEZ821G_rn9LFfDj-24" value="" style="endArrow=none;html=1;rounded=0;entryX=0.75;entryY=1;entryDx=0;entryDy=0;" parent="1" target="IYsiuEZ821G_rn9LFfDj-14" edge="1">
          <mxGeometry width="50" height="50" relative="1" as="geometry">
            <mxPoint x="365" y="410" as="sourcePoint" />
            <mxPoint x="440" y="680" as="targetPoint" />
          </mxGeometry>
        </mxCell>
        <mxCell id="IYsiuEZ821G_rn9LFfDj-25" value="" style="endArrow=none;html=1;rounded=0;entryX=0.133;entryY=1;entryDx=0;entryDy=0;entryPerimeter=0;" parent="1" target="IYsiuEZ821G_rn9LFfDj-14" edge="1">
          <mxGeometry width="50" height="50" relative="1" as="geometry">
            <mxPoint x="340" y="470" as="sourcePoint" />
            <mxPoint x="440" y="680" as="targetPoint" />
          </mxGeometry>
        </mxCell>
        <mxCell id="IYsiuEZ821G_rn9LFfDj-26" value="" style="endArrow=none;html=1;rounded=0;entryX=0.65;entryY=0.975;entryDx=0;entryDy=0;entryPerimeter=0;exitX=0.25;exitY=0;exitDx=0;exitDy=0;" parent="1" source="IYsiuEZ821G_rn9LFfDj-18" target="IYsiuEZ821G_rn9LFfDj-17" edge="1">
          <mxGeometry width="50" height="50" relative="1" as="geometry">
            <mxPoint x="390" y="730" as="sourcePoint" />
            <mxPoint x="440" y="680" as="targetPoint" />
          </mxGeometry>
        </mxCell>
        <mxCell id="IYsiuEZ821G_rn9LFfDj-27" value="" style="endArrow=none;html=1;rounded=0;entryX=0.117;entryY=1.05;entryDx=0;entryDy=0;entryPerimeter=0;exitX=0;exitY=0.5;exitDx=0;exitDy=0;" parent="1" source="IYsiuEZ821G_rn9LFfDj-19" target="IYsiuEZ821G_rn9LFfDj-17" edge="1">
          <mxGeometry width="50" height="50" relative="1" as="geometry">
            <mxPoint x="390" y="730" as="sourcePoint" />
            <mxPoint x="440" y="680" as="targetPoint" />
          </mxGeometry>
        </mxCell>
        <mxCell id="IYsiuEZ821G_rn9LFfDj-32" value="" style="endArrow=none;html=1;rounded=0;entryX=0.5;entryY=1;entryDx=0;entryDy=0;exitX=0.082;exitY=0.1;exitDx=0;exitDy=0;exitPerimeter=0;" parent="1" source="IYsiuEZ821G_rn9LFfDj-1" target="IYsiuEZ821G_rn9LFfDj-2" edge="1">
          <mxGeometry width="50" height="50" relative="1" as="geometry">
            <mxPoint x="390" y="620" as="sourcePoint" />
            <mxPoint x="440" y="570" as="targetPoint" />
          </mxGeometry>
        </mxCell>
        <mxCell id="IYsiuEZ821G_rn9LFfDj-33" value="" style="endArrow=none;html=1;rounded=0;entryX=0.25;entryY=1;entryDx=0;entryDy=0;exitX=0.5;exitY=0;exitDx=0;exitDy=0;" parent="1" source="IYsiuEZ821G_rn9LFfDj-1" target="IYsiuEZ821G_rn9LFfDj-3" edge="1">
          <mxGeometry width="50" height="50" relative="1" as="geometry">
            <mxPoint x="390" y="620" as="sourcePoint" />
            <mxPoint x="440" y="570" as="targetPoint" />
          </mxGeometry>
        </mxCell>
        <mxCell id="IYsiuEZ821G_rn9LFfDj-34" value="" style="endArrow=none;html=1;rounded=0;entryX=0.16;entryY=1.025;entryDx=0;entryDy=0;entryPerimeter=0;exitX=0.836;exitY=0.1;exitDx=0;exitDy=0;exitPerimeter=0;" parent="1" source="IYsiuEZ821G_rn9LFfDj-1" target="IYsiuEZ821G_rn9LFfDj-7" edge="1">
          <mxGeometry width="50" height="50" relative="1" as="geometry">
            <mxPoint x="390" y="620" as="sourcePoint" />
            <mxPoint x="440" y="570" as="targetPoint" />
          </mxGeometry>
        </mxCell>
        <mxCell id="IYsiuEZ821G_rn9LFfDj-35" value="borrowed" style="html=1;whiteSpace=wrap;aspect=fixed;shape=isoRectangle;" parent="1" vertex="1">
          <mxGeometry x="316.67" y="110" width="83.33" height="50" as="geometry" />
        </mxCell>
        <mxCell id="IYsiuEZ821G_rn9LFfDj-42" value="" style="endArrow=none;html=1;rounded=0;entryX=0.5;entryY=1;entryDx=0;entryDy=0;exitX=0.2;exitY=0.04;exitDx=0;exitDy=0;exitPerimeter=0;" parent="1" source="IYsiuEZ821G_rn9LFfDj-4" target="IYsiuEZ821G_rn9LFfDj-5" edge="1">
          <mxGeometry width="50" height="50" relative="1" as="geometry">
            <mxPoint x="390" y="620" as="sourcePoint" />
            <mxPoint x="440" y="570" as="targetPoint" />
          </mxGeometry>
        </mxCell>
        <mxCell id="IYsiuEZ821G_rn9LFfDj-43" value="" style="endArrow=none;html=1;rounded=0;entryX=0.25;entryY=1;entryDx=0;entryDy=0;exitX=0.75;exitY=0;exitDx=0;exitDy=0;" parent="1" source="IYsiuEZ821G_rn9LFfDj-4" target="IYsiuEZ821G_rn9LFfDj-6" edge="1">
          <mxGeometry width="50" height="50" relative="1" as="geometry">
            <mxPoint x="390" y="620" as="sourcePoint" />
            <mxPoint x="440" y="570" as="targetPoint" />
          </mxGeometry>
        </mxCell>
        <mxCell id="IYsiuEZ821G_rn9LFfDj-44" value="&lt;div&gt;borrow_date&lt;/div&gt;" style="ellipse;whiteSpace=wrap;html=1;" parent="1" vertex="1">
          <mxGeometry x="400" y="30" width="70" height="50" as="geometry" />
        </mxCell>
        <mxCell id="IYsiuEZ821G_rn9LFfDj-45" value="due_date" style="ellipse;whiteSpace=wrap;html=1;" parent="1" vertex="1">
          <mxGeometry x="316.67" y="30" width="70" height="50" as="geometry" />
        </mxCell>
        <mxCell id="IYsiuEZ821G_rn9LFfDj-46" value="" style="endArrow=none;html=1;rounded=0;entryX=0.405;entryY=0.9;entryDx=0;entryDy=0;entryPerimeter=0;" parent="1" target="IYsiuEZ821G_rn9LFfDj-45" edge="1">
          <mxGeometry width="50" height="50" relative="1" as="geometry">
            <mxPoint x="345" y="120" as="sourcePoint" />
            <mxPoint x="440" y="560" as="targetPoint" />
          </mxGeometry>
        </mxCell>
        <mxCell id="IYsiuEZ821G_rn9LFfDj-47" value="" style="endArrow=none;html=1;rounded=0;entryX=0.4;entryY=1.06;entryDx=0;entryDy=0;entryPerimeter=0;exitX=0.76;exitY=0.32;exitDx=0;exitDy=0;exitPerimeter=0;" parent="1" source="IYsiuEZ821G_rn9LFfDj-35" target="IYsiuEZ821G_rn9LFfDj-44" edge="1">
          <mxGeometry width="50" height="50" relative="1" as="geometry">
            <mxPoint x="390" y="610" as="sourcePoint" />
            <mxPoint x="440" y="560" as="targetPoint" />
          </mxGeometry>
        </mxCell>
        <mxCell id="IYsiuEZ821G_rn9LFfDj-48" value="" style="endArrow=none;html=1;rounded=0;entryX=0;entryY=0.5;entryDx=0;entryDy=0;exitX=0.988;exitY=0.48;exitDx=0;exitDy=0;exitPerimeter=0;" parent="1" source="IYsiuEZ821G_rn9LFfDj-35" target="IYsiuEZ821G_rn9LFfDj-4" edge="1">
          <mxGeometry relative="1" as="geometry">
            <mxPoint x="340" y="590" as="sourcePoint" />
            <mxPoint x="500" y="590" as="targetPoint" />
          </mxGeometry>
        </mxCell>
        <mxCell id="IYsiuEZ821G_rn9LFfDj-49" value="N" style="resizable=0;html=1;whiteSpace=wrap;align=right;verticalAlign=bottom;" parent="IYsiuEZ821G_rn9LFfDj-48" connectable="0" vertex="1">
          <mxGeometry x="1" relative="1" as="geometry" />
        </mxCell>
        <mxCell id="IYsiuEZ821G_rn9LFfDj-50" value="" style="endArrow=none;html=1;rounded=0;entryX=0.04;entryY=0.4;entryDx=0;entryDy=0;entryPerimeter=0;exitX=1;exitY=0.5;exitDx=0;exitDy=0;" parent="1" source="IYsiuEZ821G_rn9LFfDj-1" target="IYsiuEZ821G_rn9LFfDj-35" edge="1">
          <mxGeometry relative="1" as="geometry">
            <mxPoint x="340" y="590" as="sourcePoint" />
            <mxPoint x="500" y="590" as="targetPoint" />
          </mxGeometry>
        </mxCell>
        <mxCell id="IYsiuEZ821G_rn9LFfDj-51" value="1" style="resizable=0;html=1;whiteSpace=wrap;align=right;verticalAlign=bottom;" parent="IYsiuEZ821G_rn9LFfDj-50" connectable="0" vertex="1">
          <mxGeometry x="1" relative="1" as="geometry" />
        </mxCell>
        <mxCell id="IYsiuEZ821G_rn9LFfDj-52" value="" style="endArrow=none;html=1;rounded=0;entryX=0.25;entryY=1;entryDx=0;entryDy=0;exitX=0.25;exitY=0;exitDx=0;exitDy=0;" parent="1" source="IYsiuEZ821G_rn9LFfDj-8" target="IYsiuEZ821G_rn9LFfDj-1" edge="1">
          <mxGeometry relative="1" as="geometry">
            <mxPoint x="340" y="590" as="sourcePoint" />
            <mxPoint x="500" y="590" as="targetPoint" />
          </mxGeometry>
        </mxCell>
        <mxCell id="IYsiuEZ821G_rn9LFfDj-53" value="1" style="resizable=0;html=1;whiteSpace=wrap;align=right;verticalAlign=bottom;" parent="IYsiuEZ821G_rn9LFfDj-52" connectable="0" vertex="1">
          <mxGeometry x="1" relative="1" as="geometry">
            <mxPoint x="-7" y="20" as="offset" />
          </mxGeometry>
        </mxCell>
        <mxCell id="IYsiuEZ821G_rn9LFfDj-54" value="" style="endArrow=none;html=1;rounded=0;exitX=0.25;exitY=1;exitDx=0;exitDy=0;entryX=0.25;entryY=0;entryDx=0;entryDy=0;" parent="1" source="IYsiuEZ821G_rn9LFfDj-1" target="IYsiuEZ821G_rn9LFfDj-8" edge="1">
          <mxGeometry relative="1" as="geometry">
            <mxPoint x="340" y="590" as="sourcePoint" />
            <mxPoint x="500" y="590" as="targetPoint" />
          </mxGeometry>
        </mxCell>
        <mxCell id="IYsiuEZ821G_rn9LFfDj-55" value="1" style="resizable=0;html=1;whiteSpace=wrap;align=right;verticalAlign=bottom;" parent="IYsiuEZ821G_rn9LFfDj-54" connectable="0" vertex="1">
          <mxGeometry x="1" relative="1" as="geometry">
            <mxPoint x="-10" as="offset" />
          </mxGeometry>
        </mxCell>
        <mxCell id="IYsiuEZ821G_rn9LFfDj-56" value="" style="endArrow=none;html=1;rounded=0;entryX=0.627;entryY=1.06;entryDx=0;entryDy=0;entryPerimeter=0;exitX=0;exitY=0;exitDx=0;exitDy=0;" parent="1" source="IYsiuEZ821G_rn9LFfDj-11" target="IYsiuEZ821G_rn9LFfDj-1" edge="1">
          <mxGeometry relative="1" as="geometry">
            <mxPoint x="340" y="590" as="sourcePoint" />
            <mxPoint x="500" y="590" as="targetPoint" />
          </mxGeometry>
        </mxCell>
        <mxCell id="IYsiuEZ821G_rn9LFfDj-57" value="1" style="resizable=0;html=1;whiteSpace=wrap;align=right;verticalAlign=bottom;" parent="IYsiuEZ821G_rn9LFfDj-56" connectable="0" vertex="1">
          <mxGeometry x="1" relative="1" as="geometry">
            <mxPoint x="1" y="17" as="offset" />
          </mxGeometry>
        </mxCell>
        <mxCell id="IYsiuEZ821G_rn9LFfDj-59" value="" style="endArrow=none;html=1;rounded=0;exitX=0.627;exitY=1.04;exitDx=0;exitDy=0;exitPerimeter=0;entryX=0;entryY=0;entryDx=0;entryDy=0;" parent="1" source="IYsiuEZ821G_rn9LFfDj-1" target="IYsiuEZ821G_rn9LFfDj-11" edge="1">
          <mxGeometry relative="1" as="geometry">
            <mxPoint x="340" y="590" as="sourcePoint" />
            <mxPoint x="500" y="590" as="targetPoint" />
          </mxGeometry>
        </mxCell>
        <mxCell id="IYsiuEZ821G_rn9LFfDj-60" value="1" style="resizable=0;html=1;whiteSpace=wrap;align=right;verticalAlign=bottom;" parent="IYsiuEZ821G_rn9LFfDj-59" connectable="0" vertex="1">
          <mxGeometry x="1" relative="1" as="geometry">
            <mxPoint x="10" as="offset" />
          </mxGeometry>
        </mxCell>
        <mxCell id="IYsiuEZ821G_rn9LFfDj-61" value="" style="endArrow=none;html=1;rounded=0;exitX=0.75;exitY=1;exitDx=0;exitDy=0;entryX=0;entryY=0;entryDx=0;entryDy=0;" parent="1" source="IYsiuEZ821G_rn9LFfDj-1" target="IYsiuEZ821G_rn9LFfDj-14" edge="1">
          <mxGeometry relative="1" as="geometry">
            <mxPoint x="340" y="440" as="sourcePoint" />
            <mxPoint x="500" y="440" as="targetPoint" />
          </mxGeometry>
        </mxCell>
        <mxCell id="IYsiuEZ821G_rn9LFfDj-62" value="1" style="resizable=0;html=1;whiteSpace=wrap;align=right;verticalAlign=bottom;" parent="IYsiuEZ821G_rn9LFfDj-61" connectable="0" vertex="1">
          <mxGeometry x="1" relative="1" as="geometry">
            <mxPoint x="10" as="offset" />
          </mxGeometry>
        </mxCell>
        <mxCell id="IYsiuEZ821G_rn9LFfDj-63" value="" style="endArrow=none;html=1;rounded=0;entryX=0;entryY=0;entryDx=0;entryDy=0;exitX=1;exitY=1;exitDx=0;exitDy=0;" parent="1" source="IYsiuEZ821G_rn9LFfDj-1" target="IYsiuEZ821G_rn9LFfDj-17" edge="1">
          <mxGeometry relative="1" as="geometry">
            <mxPoint x="340" y="440" as="sourcePoint" />
            <mxPoint x="500" y="440" as="targetPoint" />
          </mxGeometry>
        </mxCell>
        <mxCell id="IYsiuEZ821G_rn9LFfDj-64" value="1" style="resizable=0;html=1;whiteSpace=wrap;align=right;verticalAlign=bottom;" parent="IYsiuEZ821G_rn9LFfDj-63" connectable="0" vertex="1">
          <mxGeometry x="1" relative="1" as="geometry" />
        </mxCell>
        <mxCell id="IYsiuEZ821G_rn9LFfDj-65" value="" style="endArrow=none;html=1;rounded=0;" parent="1" edge="1">
          <mxGeometry relative="1" as="geometry">
            <mxPoint x="430" y="350" as="sourcePoint" />
            <mxPoint x="160" y="160" as="targetPoint" />
          </mxGeometry>
        </mxCell>
        <mxCell id="IYsiuEZ821G_rn9LFfDj-66" value="1" style="resizable=0;html=1;whiteSpace=wrap;align=right;verticalAlign=bottom;" parent="IYsiuEZ821G_rn9LFfDj-65" connectable="0" vertex="1">
          <mxGeometry x="1" relative="1" as="geometry">
            <mxPoint x="20" as="offset" />
          </mxGeometry>
        </mxCell>
        <mxCell id="IYsiuEZ821G_rn9LFfDj-67" value="" style="endArrow=none;html=1;rounded=0;exitX=0;exitY=0;exitDx=0;exitDy=0;" parent="1" source="IYsiuEZ821G_rn9LFfDj-14" edge="1">
          <mxGeometry relative="1" as="geometry">
            <mxPoint x="340" y="440" as="sourcePoint" />
            <mxPoint x="130" y="160" as="targetPoint" />
            <Array as="points">
              <mxPoint x="310" y="340" />
            </Array>
          </mxGeometry>
        </mxCell>
        <mxCell id="IYsiuEZ821G_rn9LFfDj-68" value="1" style="resizable=0;html=1;whiteSpace=wrap;align=right;verticalAlign=bottom;" parent="IYsiuEZ821G_rn9LFfDj-67" connectable="0" vertex="1">
          <mxGeometry x="1" relative="1" as="geometry">
            <mxPoint x="30" y="20" as="offset" />
          </mxGeometry>
        </mxCell>
      </root>
    </mxGraphModel>
  </diagram>
</mxfile>
